<svg width="13" height="15" viewBox="0 0 13 15" fill="none" xmlns="http://www.w3.org/2000/svg">
<path d="M13 10.5V12.75C13 13.9928 10.0894 15 6.5 15C2.91056 15 0 13.9928 0 12.75V10.5C0 11.7428 2.91056 12.75 6.5 12.75C10.0894 12.75 13 11.7428 13 10.5ZM6.5 9.75C2.91056 9.75 0 8.74275 0 7.5V9.75C0 10.9928 2.91056 12 6.5 12C10.0894 12 13 10.9928 13 9.75V7.5C13 8.74275 10.0894 9.75 6.5 9.75ZM6.5 0C2.91056 0 0 1.00725 0 2.25V3.75C0 4.99275 2.91056 6 6.5 6C10.0894 6 13 4.99275 13 3.75V2.25C13 1.00725 10.0894 0 6.5 0ZM6.5 6.75C2.91056 6.75 0 5.74275 0 4.5V6.75C0 7.99275 2.91056 9 6.5 9C10.0894 9 13 7.99275 13 6.75V4.5C13 5.74275 10.0894 6.75 6.5 6.75Z" fill="white"/>
</svg>
