<svg width="12" height="10" viewBox="0 0 12 10" fill="none" xmlns="http://www.w3.org/2000/svg">
<path fill-rule="evenodd" clip-rule="evenodd" d="M0 5C0.567 2.1475 3.0378 0 6 0C8.9622 0 11.433 2.1475 12 5C11.433 7.8525 8.9622 10 6 10C3.0378 10 0.567 7.8525 0 5ZM6 8.125C6.79565 8.125 7.55871 7.79576 8.12132 7.20971C8.68393 6.62366 9 5.8288 9 5C9 4.1712 8.68393 3.37634 8.12132 2.79029C7.55871 2.20424 6.79565 1.875 6 1.875C5.20435 1.875 4.44129 2.20424 3.87868 2.79029C3.31607 3.37634 3 4.1712 3 5C3 5.8288 3.31607 6.62366 3.87868 7.20971C4.44129 7.79576 5.20435 8.125 6 8.125ZM6 6.875C6.47739 6.875 6.93523 6.67746 7.27279 6.32583C7.61036 5.97419 7.8 5.49728 7.8 5C7.8 4.50272 7.61036 4.02581 7.27279 3.67417C6.93523 3.32254 6.47739 3.125 6 3.125C5.52261 3.125 5.06477 3.32254 4.72721 3.67417C4.38964 4.02581 4.2 4.50272 4.2 5C4.2 5.49728 4.38964 5.97419 4.72721 6.32583C5.06477 6.67746 5.52261 6.875 6 6.875V6.875Z" fill="white"/>
</svg>
