<svg width="12" height="3" viewBox="0 0 12 3" fill="none" xmlns="http://www.w3.org/2000/svg">
<path d="M1.27841 2.54616C0.926847 2.54616 0.625 2.42188 0.372869 2.1733C0.12429 1.92116 0 1.61932 0 1.26776C0 0.919744 0.12429 0.621449 0.372869 0.37287C0.625 0.12429 0.926847 0 1.27841 0C1.61932 0 1.91761 0.12429 2.1733 0.37287C2.42898 0.621449 2.55682 0.919744 2.55682 1.26776C2.55682 1.50213 2.49645 1.71697 2.37571 1.91229C2.25852 2.10405 2.10405 2.25852 1.91229 2.37571C1.72053 2.48935 1.50923 2.54616 1.27841 2.54616Z" fill="white"/>
<path d="M5.74618 2.54616C5.39462 2.54616 5.09277 2.42188 4.84064 2.1733C4.59206 1.92116 4.46777 1.61932 4.46777 1.26776C4.46777 0.919744 4.59206 0.621449 4.84064 0.37287C5.09277 0.12429 5.39462 0 5.74618 0C6.08709 0 6.38539 0.12429 6.64107 0.37287C6.89675 0.621449 7.02459 0.919744 7.02459 1.26776C7.02459 1.50213 6.96422 1.71697 6.84348 1.91229C6.7263 2.10405 6.57182 2.25852 6.38006 2.37571C6.1883 2.48935 5.97701 2.54616 5.74618 2.54616Z" fill="white"/>
<path d="M10.214 2.54616C9.86239 2.54616 9.56055 2.42188 9.30842 2.1733C9.05984 1.92116 8.93555 1.61932 8.93555 1.26776C8.93555 0.919744 9.05984 0.621449 9.30842 0.37287C9.56055 0.12429 9.86239 0 10.214 0C10.5549 0 10.8532 0.12429 11.1088 0.37287C11.3645 0.621449 11.4924 0.919744 11.4924 1.26776C11.4924 1.50213 11.432 1.71697 11.3113 1.91229C11.1941 2.10405 11.0396 2.25852 10.8478 2.37571C10.6561 2.48935 10.4448 2.54616 10.214 2.54616Z" fill="white"/>
</svg>
