<svg width="27" height="34" viewBox="0 0 27 34" fill="none" xmlns="http://www.w3.org/2000/svg">
<path d="M2.07692 10.625V31.875C2.07692 33.0438 3.01154 34 4.15385 34H22.8462C23.9885 34 24.9231 33.0438 24.9231 31.875V10.625H2.07692ZM8.30769 29.75H6.23077V14.875H8.30769V29.75ZM12.4615 29.75H10.3846V14.875H12.4615V29.75ZM16.6154 29.75H14.5385V14.875H16.6154V29.75ZM20.7692 29.75H18.6923V14.875H20.7692V29.75ZM25.4423 4.25H18.6923V1.59375C18.6907 1.17158 18.526 0.767176 18.2343 0.468653C17.9425 0.17013 17.5472 0.00167864 17.1346 0L9.86538 0C9.45276 0.00167864 9.05751 0.17013 8.76574 0.468653C8.47397 0.767176 8.30933 1.17158 8.30769 1.59375V4.25H1.55769C1.1449 4.25112 0.749335 4.41939 0.457449 4.71804C0.165562 5.01668 0.00109639 5.42141 0 5.84375V8.5H27V5.84375C26.9989 5.42141 26.8344 5.01668 26.5426 4.71804C26.2507 4.41939 25.8551 4.25112 25.4423 4.25ZM16.6154 4.25H10.3846V2.15263H16.6154V4.25Z" fill="white"/>
</svg>
