<svg width="10" height="12" viewBox="0 0 10 12" fill="none" xmlns="http://www.w3.org/2000/svg">
<path d="M9.64286 0.750004H6.96429L6.75446 0.311723C6.71002 0.218023 6.64155 0.139205 6.55677 0.084135C6.47198 0.0290653 6.37425 -7.09679e-05 6.27455 4.10923e-06H3.72321C3.62375 -0.000397388 3.52618 0.0286302 3.4417 0.0837612C3.35721 0.138892 3.28923 0.217897 3.24554 0.311723L3.03571 0.750004H0.357143C0.262423 0.750004 0.171582 0.789513 0.104605 0.859839C0.0376274 0.930165 0 1.02555 0 1.125L0 1.875C0 1.97446 0.0376274 2.06984 0.104605 2.14017C0.171582 2.21049 0.262423 2.25 0.357143 2.25H9.64286C9.73758 2.25 9.82842 2.21049 9.8954 2.14017C9.96237 2.06984 10 1.97446 10 1.875V1.125C10 1.02555 9.96237 0.930165 9.8954 0.859839C9.82842 0.789513 9.73758 0.750004 9.64286 0.750004V0.750004ZM1.1875 10.9453C1.20453 11.2309 1.32459 11.499 1.52323 11.6949C1.72186 11.8909 1.98415 12 2.2567 12H7.7433C8.01585 12 8.27814 11.8909 8.47677 11.6949C8.67541 11.499 8.79547 11.2309 8.8125 10.9453L9.28571 3H0.714286L1.1875 10.9453Z" fill="white"/>
</svg>
