<svg width="14" height="14" viewBox="0 0 14 14" fill="none" xmlns="http://www.w3.org/2000/svg">
<path fill-rule="evenodd" clip-rule="evenodd" d="M0 7C0 3.15 3.129 0 7 0C7.91925 0 8.8295 0.18106 9.67878 0.532843C10.5281 0.884626 11.2997 1.40024 11.9497 2.05025C12.5998 2.70026 13.1154 3.47194 13.4672 4.32122C13.8189 5.17049 14 6.08075 14 7C14 8.85651 13.2625 10.637 11.9497 11.9497C10.637 13.2625 8.85651 14 7 14C6.08075 14 5.17049 13.8189 4.32122 13.4672C3.47194 13.1154 2.70026 12.5998 2.05025 11.9497C0.737498 10.637 0 8.85651 0 7ZM8.33698 4.20002C8.04998 3.19902 7.58098 2.26102 6.99998 1.42102C6.41898 2.26102 5.94998 3.19902 5.66298 4.20002H8.33698ZM4.2 4.2H2.156C2.8272 3.02905 3.90236 2.14304 5.18 1.708C4.76 2.485 4.445 3.325 4.2 4.2ZM2.156 9.8H4.2C4.445 10.675 4.76 11.515 5.18 12.292C3.90504 11.8522 2.83139 10.9674 2.156 9.8ZM1.582 8.4C1.47 7.952 1.4 7.483 1.4 7C1.4 6.517 1.47 6.048 1.582 5.6H3.948C3.892 6.062 3.85 6.524 3.85 7C3.85 7.476 3.892 7.938 3.948 8.4H1.582ZM8.75 7C8.75 7.476 8.701 7.938 8.638 8.4H5.362C5.292 7.938 5.25 7.476 5.25 7C5.25 6.524 5.292 6.055 5.362 5.6H8.638C8.701 6.055 8.75 6.524 8.75 7ZM10.052 8.4C10.108 7.938 10.15 7.476 10.15 7C10.15 6.524 10.108 6.062 10.052 5.6H12.418C12.53 6.048 12.6 6.517 12.6 7C12.6 7.483 12.53 7.952 12.418 8.4H10.052ZM8.81298 12.292C9.23298 11.515 9.55498 10.675 9.77898 9.8H11.844C11.1658 10.9678 10.0899 11.8524 8.81298 12.292ZM5.66298 9.8C5.94998 10.801 6.41898 11.732 6.99998 12.572C7.58098 11.732 8.04998 10.801 8.33698 9.8H5.66298ZM11.844 4.2H9.77898C9.55989 3.33302 9.23548 2.49613 8.81298 1.708C10.101 2.149 11.172 3.038 11.844 4.2Z" fill="white"/>
</svg>
