<svg width="107" height="30" viewBox="0 0 107 30" fill="none" xmlns="http://www.w3.org/2000/svg">
<path d="M30.66 7.96V22H27.24V7.96H30.66ZM39.9384 10.72C41.2451 10.72 42.2851 11.1467 43.0584 12C43.8451 12.84 44.2384 14 44.2384 15.48V22H40.8384V15.94C40.8384 15.1933 40.6451 14.6133 40.2584 14.2C39.8718 13.7867 39.3518 13.58 38.6984 13.58C38.0451 13.58 37.5251 13.7867 37.1384 14.2C36.7518 14.6133 36.5584 15.1933 36.5584 15.94V22H33.1384V10.84H36.5584V12.32C36.9051 11.8267 37.3718 11.44 37.9584 11.16C38.5451 10.8667 39.2051 10.72 39.9384 10.72ZM57.135 16.24C57.135 16.56 57.115 16.8933 57.075 17.24H49.335C49.3883 17.9333 49.6083 18.4667 49.995 18.84C50.395 19.2 50.8817 19.38 51.455 19.38C52.3083 19.38 52.9017 19.02 53.235 18.3H56.875C56.6883 19.0333 56.3483 19.6933 55.855 20.28C55.375 20.8667 54.7683 21.3267 54.035 21.66C53.3017 21.9933 52.4817 22.16 51.575 22.16C50.4817 22.16 49.5083 21.9267 48.655 21.46C47.8017 20.9933 47.135 20.3267 46.655 19.46C46.175 18.5933 45.935 17.58 45.935 16.42C45.935 15.26 46.1683 14.2467 46.635 13.38C47.115 12.5133 47.7817 11.8467 48.635 11.38C49.4883 10.9133 50.4683 10.68 51.575 10.68C52.655 10.68 53.615 10.9067 54.455 11.36C55.295 11.8133 55.9483 12.46 56.415 13.3C56.895 14.14 57.135 15.12 57.135 16.24ZM53.635 15.34C53.635 14.7533 53.435 14.2867 53.035 13.94C52.635 13.5933 52.135 13.42 51.535 13.42C50.9617 13.42 50.475 13.5867 50.075 13.92C49.6883 14.2533 49.4483 14.7267 49.355 15.34H53.635ZM62.3592 12.7C62.7592 12.0867 63.2592 11.6067 63.8592 11.26C64.4592 10.9 65.1259 10.72 65.8592 10.72V14.34H64.9192C64.0659 14.34 63.4259 14.5267 62.9992 14.9C62.5726 15.26 62.3592 15.9 62.3592 16.82V22H58.9392V10.84H62.3592V12.7ZM78.8939 10.84L71.8939 27.3H68.2139L70.7739 21.62L66.2339 10.84H70.0539L72.6339 17.82L75.1939 10.84H78.8939Z" fill="white"/>
<path d="M85.3906 7.96C86.8706 7.96 88.164 8.25333 89.2706 8.84C90.3773 9.42667 91.2306 10.2533 91.8306 11.32C92.444 12.3733 92.7506 13.5933 92.7506 14.98C92.7506 16.3533 92.444 17.5733 91.8306 18.64C91.2306 19.7067 90.3706 20.5333 89.2506 21.12C88.144 21.7067 86.8573 22 85.3906 22H80.1306V7.96H85.3906ZM85.1706 19.04C86.464 19.04 87.4706 18.6867 88.1906 17.98C88.9106 17.2733 89.2706 16.2733 89.2706 14.98C89.2706 13.6867 88.9106 12.68 88.1906 11.96C87.4706 11.24 86.464 10.88 85.1706 10.88H83.5506V19.04H85.1706ZM103.162 14.8C103.975 14.9733 104.629 15.38 105.122 16.02C105.615 16.6467 105.862 17.3667 105.862 18.18C105.862 19.3533 105.449 20.2867 104.622 20.98C103.809 21.66 102.669 22 101.202 22H94.6619V7.96H100.982C102.409 7.96 103.522 8.28667 104.322 8.94C105.135 9.59333 105.542 10.48 105.542 11.6C105.542 12.4267 105.322 13.1133 104.882 13.66C104.455 14.2067 103.882 14.5867 103.162 14.8ZM98.0819 13.64H100.322C100.882 13.64 101.309 13.52 101.602 13.28C101.909 13.0267 102.062 12.66 102.062 12.18C102.062 11.7 101.909 11.3333 101.602 11.08C101.309 10.8267 100.882 10.7 100.322 10.7H98.0819V13.64ZM100.602 19.24C101.175 19.24 101.615 19.1133 101.922 18.86C102.242 18.5933 102.402 18.2133 102.402 17.72C102.402 17.2267 102.235 16.84 101.902 16.56C101.582 16.28 101.135 16.14 100.562 16.14H98.0819V19.24H100.602Z" fill="#5BFCDF"/>
<rect y="11" width="21" height="8" rx="2" fill="#5BFCDF"/>
<rect y="4" width="21" height="5" rx="2" fill="white"/>
<rect y="21" width="21" height="5" rx="2" fill="white"/>
</svg>
